# xmcd
#
# Track frame offsets:
#	150
#	13098
#	28921
#	45606
#	66760
#	87857
#	104990
#
# Disc length: 1703 seconds
#
# Revision: 0
# Processed by: cddbd v1.5.1PL0 Copyright (c) Steve Scherf et al.
# Submitted via: dBpowerAMP V4.0
#
DISCID=5d06a507
DTITLE=Relentles band - Hypnotyize
DYEAR=1900
DGENRE=
TTITLE0=Hypnotize
TTITLE1=Rther Be Lonesome
TTITLE2=Girl Of My Dreams
TTITLE3=Future In My Past
TTITLE4=Let the Good Times Roll
TTITLE5=No Way Up
TTITLE6=Searchin for an Angel
EXTD=
EXTT0=
EXTT1=
EXTT2=
EXTT3=
EXTT4=
EXTT5=
EXTT6=
PLAYORDER=
